<svg xmlns="http://www.w3.org/2000/svg" width="1600" height="700" viewBox="0 0 1600 700" font-family="Inter, 'Segoe UI', 'Helvetica Neue', Arial, sans-serif">
<defs>
  <radialGradient id="bg" cx="50%" cy="35%" r="80%">
    <stop offset="0" stop-color="#16214a"/>
    <stop offset="0.55" stop-color="#0b1130"/>
    <stop offset="1" stop-color="#05081a"/>
  </radialGradient>
  <radialGradient id="planet" cx="38%" cy="32%" r="75%">
    <stop offset="0" stop-color="#fff2c8"/>
    <stop offset="0.35" stop-color="#ffb347"/>
    <stop offset="0.75" stop-color="#d9531e"/>
    <stop offset="1" stop-color="#6b1d0e"/>
  </radialGradient>
  <radialGradient id="glow" cx="50%" cy="50%" r="50%">
    <stop offset="0" stop-color="#ffb347" stop-opacity="0.55"/>
    <stop offset="0.5" stop-color="#ff8a3d" stop-opacity="0.15"/>
    <stop offset="1" stop-color="#ff8a3d" stop-opacity="0"/>
  </radialGradient>
  <linearGradient id="beam" x1="0" y1="0" x2="0" y2="1">
    <stop offset="0" stop-color="#ffb347" stop-opacity="0.9"/>
    <stop offset="1" stop-color="#7cc7ff" stop-opacity="0.35"/>
  </linearGradient>
  <linearGradient id="tile" x1="0" y1="0" x2="0" y2="1">
    <stop offset="0" stop-color="#1c2a5e"/>
    <stop offset="1" stop-color="#101a3f"/>
  </linearGradient>
  <filter id="blur" x="-50%" y="-50%" width="200%" height="200%"><feGaussianBlur stdDeviation="36.8"/></filter>
  <filter id="soft" x="-20%" y="-20%" width="140%" height="140%"><feGaussianBlur stdDeviation="2"/></filter>
</defs>
<rect width="1600" height="700" fill="url(#bg)"/>
<g><circle cx="518" cy="106" r="0.6" fill="#dfe8ff" opacity="0.30"/><circle cx="857" cy="256" r="0.6" fill="#dfe8ff" opacity="0.84"/><circle cx="344" cy="60" r="1.3" fill="#dfe8ff" opacity="0.30"/><circle cx="145" cy="297" r="1.8" fill="#dfe8ff" opacity="0.33"/><circle cx="357" cy="439" r="0.6" fill="#dfe8ff" opacity="0.63"/><circle cx="635" cy="683" r="0.6" fill="#dfe8ff" opacity="0.61"/><circle cx="213" cy="293" r="1.8" fill="#dfe8ff" opacity="0.33"/><circle cx="494" cy="571" r="0.8" fill="#dfe8ff" opacity="0.32"/><circle cx="914" cy="132" r="0.6" fill="#dfe8ff" opacity="0.61"/><circle cx="100" cy="42" r="0.8" fill="#dfe8ff" opacity="0.57"/><circle cx="851" cy="544" r="1.3" fill="#dfe8ff" opacity="0.63"/><circle cx="725" cy="210" r="0.8" fill="#dfe8ff" opacity="0.70"/><circle cx="391" cy="402" r="1.8" fill="#dfe8ff" opacity="0.57"/><circle cx="550" cy="314" r="1.8" fill="#dfe8ff" opacity="0.89"/><circle cx="189" cy="293" r="1.0" fill="#dfe8ff" opacity="0.35"/><circle cx="782" cy="27" r="0.6" fill="#dfe8ff" opacity="0.75"/><circle cx="917" cy="613" r="1.0" fill="#dfe8ff" opacity="0.47"/><circle cx="560" cy="348" r="1.3" fill="#dfe8ff" opacity="0.29"/><circle cx="150" cy="189" r="0.6" fill="#dfe8ff" opacity="0.29"/><circle cx="1122" cy="453" r="1.3" fill="#dfe8ff" opacity="0.43"/><circle cx="617" cy="468" r="0.6" fill="#dfe8ff" opacity="0.86"/><circle cx="569" cy="428" r="1.3" fill="#dfe8ff" opacity="0.29"/><circle cx="1229" cy="91" r="0.8" fill="#dfe8ff" opacity="0.51"/><circle cx="1467" cy="348" r="0.8" fill="#dfe8ff" opacity="0.54"/><circle cx="879" cy="618" r="1.3" fill="#dfe8ff" opacity="0.81"/><circle cx="445" cy="291" r="1.0" fill="#dfe8ff" opacity="0.69"/><circle cx="609" cy="162" r="0.6" fill="#dfe8ff" opacity="0.36"/><circle cx="371" cy="163" r="1.3" fill="#dfe8ff" opacity="0.79"/><circle cx="292" cy="197" r="0.8" fill="#dfe8ff" opacity="0.52"/><circle cx="591" cy="396" r="0.8" fill="#dfe8ff" opacity="0.70"/><circle cx="825" cy="432" r="0.6" fill="#dfe8ff" opacity="0.55"/><circle cx="1394" cy="666" r="1.8" fill="#dfe8ff" opacity="0.51"/><circle cx="638" cy="72" r="1.3" fill="#dfe8ff" opacity="0.29"/><circle cx="108" cy="146" r="0.8" fill="#dfe8ff" opacity="0.32"/><circle cx="961" cy="72" r="1.8" fill="#dfe8ff" opacity="0.35"/><circle cx="162" cy="255" r="0.6" fill="#dfe8ff" opacity="0.30"/><circle cx="333" cy="263" r="1.0" fill="#dfe8ff" opacity="0.87"/><circle cx="964" cy="332" r="0.6" fill="#dfe8ff" opacity="0.80"/><circle cx="1589" cy="326" r="1.3" fill="#dfe8ff" opacity="0.45"/><circle cx="231" cy="525" r="1.0" fill="#dfe8ff" opacity="0.56"/><circle cx="1107" cy="361" r="0.8" fill="#dfe8ff" opacity="0.87"/><circle cx="845" cy="103" r="1.8" fill="#dfe8ff" opacity="0.84"/><circle cx="1213" cy="209" r="0.6" fill="#dfe8ff" opacity="0.70"/><circle cx="418" cy="257" r="0.8" fill="#dfe8ff" opacity="0.48"/><circle cx="356" cy="379" r="1.8" fill="#dfe8ff" opacity="0.46"/><circle cx="357" cy="568" r="0.8" fill="#dfe8ff" opacity="0.77"/><circle cx="1309" cy="518" r="0.8" fill="#dfe8ff" opacity="0.38"/><circle cx="788" cy="512" r="0.6" fill="#dfe8ff" opacity="0.76"/><circle cx="756" cy="136" r="1.8" fill="#dfe8ff" opacity="0.87"/><circle cx="716" cy="656" r="1.0" fill="#dfe8ff" opacity="0.87"/><circle cx="583" cy="154" r="0.8" fill="#dfe8ff" opacity="0.56"/><circle cx="540" cy="338" r="1.8" fill="#dfe8ff" opacity="0.80"/><circle cx="767" cy="457" r="0.6" fill="#dfe8ff" opacity="0.79"/><circle cx="192" cy="272" r="0.8" fill="#dfe8ff" opacity="0.56"/><circle cx="286" cy="552" r="1.0" fill="#dfe8ff" opacity="0.31"/><circle cx="1514" cy="505" r="1.3" fill="#dfe8ff" opacity="0.51"/><circle cx="1515" cy="507" r="0.8" fill="#dfe8ff" opacity="0.90"/><circle cx="44" cy="414" r="1.3" fill="#dfe8ff" opacity="0.77"/><circle cx="234" cy="579" r="1.3" fill="#dfe8ff" opacity="0.68"/><circle cx="561" cy="384" r="0.8" fill="#dfe8ff" opacity="0.26"/><circle cx="1279" cy="508" r="0.6" fill="#dfe8ff" opacity="0.59"/><circle cx="1494" cy="304" r="0.8" fill="#dfe8ff" opacity="0.79"/><circle cx="338" cy="176" r="1.0" fill="#dfe8ff" opacity="0.58"/><circle cx="1222" cy="228" r="1.8" fill="#dfe8ff" opacity="0.52"/><circle cx="210" cy="637" r="1.0" fill="#dfe8ff" opacity="0.83"/><circle cx="1060" cy="571" r="1.8" fill="#dfe8ff" opacity="0.52"/><circle cx="1468" cy="351" r="1.8" fill="#dfe8ff" opacity="0.35"/><circle cx="817" cy="611" r="0.8" fill="#dfe8ff" opacity="0.65"/><circle cx="1242" cy="105" r="0.8" fill="#dfe8ff" opacity="0.56"/><circle cx="1160" cy="390" r="1.0" fill="#dfe8ff" opacity="0.69"/><circle cx="849" cy="338" r="0.6" fill="#dfe8ff" opacity="0.82"/><circle cx="91" cy="134" r="0.6" fill="#dfe8ff" opacity="0.75"/><circle cx="812" cy="393" r="0.6" fill="#dfe8ff" opacity="0.54"/><circle cx="980" cy="354" r="1.8" fill="#dfe8ff" opacity="0.38"/><circle cx="443" cy="356" r="1.3" fill="#dfe8ff" opacity="0.58"/><circle cx="396" cy="366" r="1.0" fill="#dfe8ff" opacity="0.85"/><circle cx="1428" cy="142" r="1.3" fill="#dfe8ff" opacity="0.34"/><circle cx="195" cy="309" r="0.6" fill="#dfe8ff" opacity="0.69"/><circle cx="685" cy="149" r="1.0" fill="#dfe8ff" opacity="0.76"/><circle cx="1435" cy="108" r="1.0" fill="#dfe8ff" opacity="0.34"/><circle cx="1413" cy="677" r="0.8" fill="#dfe8ff" opacity="0.74"/><circle cx="151" cy="619" r="0.8" fill="#dfe8ff" opacity="0.89"/><circle cx="1332" cy="113" r="1.3" fill="#dfe8ff" opacity="0.90"/><circle cx="646" cy="295" r="1.0" fill="#dfe8ff" opacity="0.46"/><circle cx="1155" cy="14" r="1.8" fill="#dfe8ff" opacity="0.55"/><circle cx="1125" cy="269" r="1.8" fill="#dfe8ff" opacity="0.66"/><circle cx="820" cy="45" r="0.8" fill="#dfe8ff" opacity="0.88"/><circle cx="168" cy="186" r="0.6" fill="#dfe8ff" opacity="0.84"/><circle cx="290" cy="529" r="1.3" fill="#dfe8ff" opacity="0.80"/><circle cx="1082" cy="662" r="1.3" fill="#dfe8ff" opacity="0.35"/><circle cx="1471" cy="399" r="1.0" fill="#dfe8ff" opacity="0.31"/><circle cx="92" cy="482" r="1.3" fill="#dfe8ff" opacity="0.83"/><circle cx="430" cy="12" r="0.6" fill="#dfe8ff" opacity="0.77"/><circle cx="134" cy="599" r="0.6" fill="#dfe8ff" opacity="0.42"/><circle cx="195" cy="8" r="1.8" fill="#dfe8ff" opacity="0.52"/><circle cx="1465" cy="435" r="0.6" fill="#dfe8ff" opacity="0.59"/><circle cx="381" cy="77" r="0.8" fill="#dfe8ff" opacity="0.42"/><circle cx="290" cy="653" r="1.0" fill="#dfe8ff" opacity="0.60"/><circle cx="329" cy="312" r="0.8" fill="#dfe8ff" opacity="0.43"/><circle cx="1286" cy="696" r="0.6" fill="#dfe8ff" opacity="0.26"/><circle cx="1173" cy="386" r="0.8" fill="#dfe8ff" opacity="0.58"/><circle cx="393" cy="313" r="1.3" fill="#dfe8ff" opacity="0.68"/><circle cx="873" cy="622" r="1.8" fill="#dfe8ff" opacity="0.45"/><circle cx="344" cy="161" r="0.8" fill="#dfe8ff" opacity="0.79"/><circle cx="1131" cy="445" r="1.3" fill="#dfe8ff" opacity="0.89"/><circle cx="1571" cy="586" r="0.6" fill="#dfe8ff" opacity="0.30"/><circle cx="1185" cy="179" r="0.8" fill="#dfe8ff" opacity="0.29"/><circle cx="1064" cy="267" r="1.8" fill="#dfe8ff" opacity="0.69"/><circle cx="451" cy="170" r="1.0" fill="#dfe8ff" opacity="0.28"/><circle cx="297" cy="188" r="0.6" fill="#dfe8ff" opacity="0.42"/><circle cx="1539" cy="681" r="1.8" fill="#dfe8ff" opacity="0.46"/><circle cx="55" cy="618" r="0.8" fill="#dfe8ff" opacity="0.48"/><circle cx="2" cy="267" r="1.3" fill="#dfe8ff" opacity="0.43"/><circle cx="1050" cy="174" r="0.6" fill="#dfe8ff" opacity="0.31"/><circle cx="1307" cy="101" r="1.8" fill="#dfe8ff" opacity="0.28"/><circle cx="36" cy="213" r="0.8" fill="#dfe8ff" opacity="0.30"/><circle cx="1532" cy="597" r="0.8" fill="#dfe8ff" opacity="0.68"/><circle cx="1146" cy="615" r="1.3" fill="#dfe8ff" opacity="0.75"/><circle cx="1153" cy="346" r="1.0" fill="#dfe8ff" opacity="0.72"/><circle cx="1029" cy="31" r="1.8" fill="#dfe8ff" opacity="0.66"/><circle cx="1174" cy="569" r="0.8" fill="#dfe8ff" opacity="0.84"/><circle cx="1205" cy="398" r="0.6" fill="#dfe8ff" opacity="0.79"/><circle cx="934" cy="625" r="0.8" fill="#dfe8ff" opacity="0.31"/><circle cx="67" cy="446" r="0.6" fill="#dfe8ff" opacity="0.49"/><circle cx="722" cy="36" r="0.6" fill="#dfe8ff" opacity="0.66"/><circle cx="1089" cy="343" r="0.6" fill="#dfe8ff" opacity="0.55"/><circle cx="112" cy="653" r="1.8" fill="#dfe8ff" opacity="0.31"/><circle cx="842" cy="522" r="1.3" fill="#dfe8ff" opacity="0.41"/><circle cx="119" cy="186" r="0.8" fill="#dfe8ff" opacity="0.40"/><circle cx="1040" cy="322" r="1.3" fill="#dfe8ff" opacity="0.30"/><circle cx="1457" cy="201" r="0.6" fill="#dfe8ff" opacity="0.65"/><circle cx="1028" cy="54" r="0.8" fill="#dfe8ff" opacity="0.47"/><circle cx="1042" cy="485" r="1.8" fill="#dfe8ff" opacity="0.62"/><circle cx="20" cy="42" r="1.0" fill="#dfe8ff" opacity="0.88"/><circle cx="159" cy="152" r="1.3" fill="#dfe8ff" opacity="0.44"/><circle cx="826" cy="325" r="1.3" fill="#dfe8ff" opacity="0.75"/><circle cx="1589" cy="384" r="1.0" fill="#dfe8ff" opacity="0.89"/><circle cx="1498" cy="12" r="1.3" fill="#dfe8ff" opacity="0.30"/><circle cx="811" cy="696" r="1.0" fill="#dfe8ff" opacity="0.50"/><circle cx="1466" cy="651" r="0.6" fill="#dfe8ff" opacity="0.63"/><circle cx="227" cy="367" r="1.0" fill="#dfe8ff" opacity="0.34"/><circle cx="1312" cy="356" r="0.6" fill="#dfe8ff" opacity="0.71"/><circle cx="370" cy="628" r="1.3" fill="#dfe8ff" opacity="0.51"/><circle cx="255" cy="665" r="1.3" fill="#dfe8ff" opacity="0.51"/><circle cx="1163" cy="291" r="1.3" fill="#dfe8ff" opacity="0.46"/><circle cx="1344" cy="1" r="1.0" fill="#dfe8ff" opacity="0.80"/><circle cx="192" cy="648" r="0.6" fill="#dfe8ff" opacity="0.84"/><circle cx="464" cy="261" r="1.3" fill="#dfe8ff" opacity="0.50"/><circle cx="1392" cy="53" r="1.3" fill="#dfe8ff" opacity="0.74"/><circle cx="1367" cy="196" r="0.6" fill="#dfe8ff" opacity="0.79"/><circle cx="457" cy="655" r="0.8" fill="#dfe8ff" opacity="0.88"/><circle cx="698" cy="221" r="1.0" fill="#dfe8ff" opacity="0.76"/><circle cx="684" cy="20" r="1.3" fill="#dfe8ff" opacity="0.84"/><circle cx="1505" cy="384" r="0.6" fill="#dfe8ff" opacity="0.28"/><circle cx="1172" cy="316" r="0.8" fill="#dfe8ff" opacity="0.67"/><circle cx="458" cy="34" r="1.8" fill="#dfe8ff" opacity="0.33"/><circle cx="755" cy="241" r="1.0" fill="#dfe8ff" opacity="0.42"/><circle cx="1182" cy="457" r="1.3" fill="#dfe8ff" opacity="0.68"/><circle cx="481" cy="390" r="1.3" fill="#dfe8ff" opacity="0.33"/><circle cx="1029" cy="53" r="1.8" fill="#dfe8ff" opacity="0.84"/><circle cx="795" cy="154" r="1.0" fill="#dfe8ff" opacity="0.90"/><circle cx="720" cy="98" r="0.8" fill="#dfe8ff" opacity="0.41"/><circle cx="280" cy="389" r="1.0" fill="#dfe8ff" opacity="0.41"/><circle cx="413" cy="399" r="0.6" fill="#dfe8ff" opacity="0.74"/><circle cx="660" cy="290" r="1.8" fill="#dfe8ff" opacity="0.39"/><circle cx="432" cy="526" r="1.3" fill="#dfe8ff" opacity="0.43"/><circle cx="1548" cy="88" r="1.8" fill="#dfe8ff" opacity="0.59"/><circle cx="1264" cy="594" r="0.6" fill="#dfe8ff" opacity="0.43"/><circle cx="398" cy="280" r="1.3" fill="#dfe8ff" opacity="0.53"/><circle cx="499" cy="570" r="0.6" fill="#dfe8ff" opacity="0.33"/><circle cx="680" cy="535" r="1.3" fill="#dfe8ff" opacity="0.88"/><circle cx="784" cy="51" r="1.8" fill="#dfe8ff" opacity="0.81"/><circle cx="1556" cy="174" r="0.6" fill="#dfe8ff" opacity="0.40"/><circle cx="243" cy="680" r="0.6" fill="#dfe8ff" opacity="0.86"/><circle cx="1155" cy="453" r="1.3" fill="#dfe8ff" opacity="0.31"/><circle cx="1243" cy="1" r="0.8" fill="#dfe8ff" opacity="0.40"/><circle cx="1472" cy="452" r="1.0" fill="#dfe8ff" opacity="0.88"/><circle cx="1002" cy="370" r="1.3" fill="#dfe8ff" opacity="0.70"/><circle cx="179" cy="49" r="1.8" fill="#dfe8ff" opacity="0.86"/><circle cx="307" cy="183" r="1.8" fill="#dfe8ff" opacity="0.25"/><circle cx="860" cy="697" r="1.0" fill="#dfe8ff" opacity="0.87"/><circle cx="1031" cy="619" r="1.3" fill="#dfe8ff" opacity="0.59"/><circle cx="875" cy="20" r="1.3" fill="#dfe8ff" opacity="0.71"/><circle cx="492" cy="15" r="1.3" fill="#dfe8ff" opacity="0.83"/><circle cx="1035" cy="57" r="0.8" fill="#dfe8ff" opacity="0.68"/><circle cx="1480" cy="159" r="0.6" fill="#dfe8ff" opacity="0.70"/><circle cx="1149" cy="254" r="1.3" fill="#dfe8ff" opacity="0.38"/><circle cx="1275" cy="517" r="1.8" fill="#dfe8ff" opacity="0.29"/><circle cx="793" cy="140" r="0.8" fill="#dfe8ff" opacity="0.40"/><circle cx="354" cy="532" r="1.0" fill="#dfe8ff" opacity="0.32"/><circle cx="998" cy="427" r="0.8" fill="#dfe8ff" opacity="0.57"/><circle cx="1457" cy="39" r="1.8" fill="#dfe8ff" opacity="0.35"/><circle cx="630" cy="149" r="1.8" fill="#dfe8ff" opacity="0.34"/><circle cx="83" cy="42" r="1.3" fill="#dfe8ff" opacity="0.54"/><circle cx="1139" cy="220" r="0.6" fill="#dfe8ff" opacity="0.90"/><circle cx="1491" cy="230" r="0.8" fill="#dfe8ff" opacity="0.67"/><circle cx="840" cy="327" r="1.0" fill="#dfe8ff" opacity="0.68"/><circle cx="606" cy="262" r="1.0" fill="#dfe8ff" opacity="0.54"/><circle cx="174" cy="55" r="0.6" fill="#dfe8ff" opacity="0.48"/><circle cx="1529" cy="87" r="0.8" fill="#dfe8ff" opacity="0.50"/><circle cx="1230" cy="216" r="1.3" fill="#dfe8ff" opacity="0.31"/><circle cx="1128" cy="137" r="1.8" fill="#dfe8ff" opacity="0.85"/><circle cx="309" cy="255" r="1.3" fill="#dfe8ff" opacity="0.27"/><circle cx="657" cy="568" r="1.3" fill="#dfe8ff" opacity="0.28"/><circle cx="56" cy="44" r="0.6" fill="#dfe8ff" opacity="0.42"/><circle cx="1196" cy="629" r="1.0" fill="#dfe8ff" opacity="0.49"/><circle cx="536" cy="668" r="0.6" fill="#dfe8ff" opacity="0.42"/><circle cx="1147" cy="222" r="1.0" fill="#dfe8ff" opacity="0.44"/><circle cx="1155" cy="417" r="0.6" fill="#dfe8ff" opacity="0.27"/><circle cx="374" cy="333" r="1.3" fill="#dfe8ff" opacity="0.87"/><circle cx="618" cy="176" r="1.3" fill="#dfe8ff" opacity="0.78"/><circle cx="212" cy="348" r="0.6" fill="#dfe8ff" opacity="0.77"/><circle cx="1182" cy="576" r="0.8" fill="#dfe8ff" opacity="0.64"/><circle cx="524" cy="224" r="1.0" fill="#dfe8ff" opacity="0.76"/><circle cx="953" cy="358" r="1.3" fill="#dfe8ff" opacity="0.74"/><circle cx="396" cy="45" r="0.6" fill="#dfe8ff" opacity="0.56"/><circle cx="871" cy="112" r="1.3" fill="#dfe8ff" opacity="0.82"/><circle cx="1581" cy="185" r="0.6" fill="#dfe8ff" opacity="0.39"/><circle cx="674" cy="692" r="1.3" fill="#dfe8ff" opacity="0.36"/><circle cx="213" cy="323" r="0.8" fill="#dfe8ff" opacity="0.74"/><circle cx="1355" cy="465" r="0.6" fill="#dfe8ff" opacity="0.76"/><circle cx="470" cy="196" r="1.0" fill="#dfe8ff" opacity="0.49"/><circle cx="1181" cy="139" r="0.8" fill="#dfe8ff" opacity="0.37"/><circle cx="377" cy="197" r="1.8" fill="#dfe8ff" opacity="0.37"/><circle cx="104" cy="176" r="0.8" fill="#dfe8ff" opacity="0.58"/><circle cx="370" cy="566" r="1.3" fill="#dfe8ff" opacity="0.89"/><circle cx="164" cy="332" r="0.8" fill="#dfe8ff" opacity="0.80"/><circle cx="1463" cy="28" r="1.0" fill="#dfe8ff" opacity="0.40"/><circle cx="81" cy="420" r="1.8" fill="#dfe8ff" opacity="0.38"/><circle cx="120" cy="359" r="0.8" fill="#dfe8ff" opacity="0.54"/><circle cx="416" cy="544" r="0.6" fill="#dfe8ff" opacity="0.32"/><circle cx="954" cy="434" r="0.8" fill="#dfe8ff" opacity="0.27"/><circle cx="544" cy="31" r="1.0" fill="#dfe8ff" opacity="0.27"/><circle cx="1172" cy="640" r="0.6" fill="#dfe8ff" opacity="0.78"/><circle cx="654" cy="260" r="1.8" fill="#dfe8ff" opacity="0.45"/><circle cx="325" cy="557" r="1.8" fill="#dfe8ff" opacity="0.56"/><circle cx="653" cy="557" r="1.8" fill="#dfe8ff" opacity="0.35"/><circle cx="854" cy="457" r="1.3" fill="#dfe8ff" opacity="0.70"/><circle cx="656" cy="198" r="1.0" fill="#dfe8ff" opacity="0.52"/><circle cx="82" cy="522" r="1.0" fill="#dfe8ff" opacity="0.52"/><circle cx="29" cy="537" r="1.0" fill="#dfe8ff" opacity="0.67"/><circle cx="625" cy="283" r="0.6" fill="#dfe8ff" opacity="0.53"/><circle cx="251" cy="79" r="0.6" fill="#dfe8ff" opacity="0.51"/><circle cx="1413" cy="323" r="0.8" fill="#dfe8ff" opacity="0.33"/><circle cx="83" cy="100" r="1.3" fill="#dfe8ff" opacity="0.31"/><circle cx="996" cy="260" r="1.8" fill="#dfe8ff" opacity="0.36"/><circle cx="557" cy="113" r="0.8" fill="#dfe8ff" opacity="0.85"/><circle cx="174" cy="343" r="0.8" fill="#dfe8ff" opacity="0.45"/></g>
<ellipse cx="800.0" cy="217.0" rx="273" ry="79" fill="none" stroke="#9fc4ff" stroke-opacity="0.45" stroke-width="1.5" stroke-dasharray="6 10"/>
<ellipse cx="800.0" cy="217.0" rx="378" ry="110" fill="none" stroke="#9fc4ff" stroke-opacity="0.25" stroke-width="1.5" stroke-dasharray="6 10"/>
<path d="M 800.0 486.5 C 800.0 516.5, 244 496.5, 244 535.5" fill="none" stroke="url(#beam)" stroke-width="2.2" stroke-opacity="0.9"/>
<path d="M 800.0 486.5 C 800.0 516.5, 522 496.5, 522 535.5" fill="none" stroke="url(#beam)" stroke-width="2.2" stroke-opacity="0.9"/>
<path d="M 800.0 486.5 C 800.0 516.5, 800 496.5, 800 535.5" fill="none" stroke="url(#beam)" stroke-width="2.2" stroke-opacity="0.9"/>
<path d="M 800.0 486.5 C 800.0 516.5, 1078 496.5, 1078 535.5" fill="none" stroke="url(#beam)" stroke-width="2.2" stroke-opacity="0.9"/>
<path d="M 800.0 486.5 C 800.0 516.5, 1356 496.5, 1356 535.5" fill="none" stroke="url(#beam)" stroke-width="2.2" stroke-opacity="0.9"/>
<circle cx="800.0" cy="217.0" r="231" fill="url(#glow)"/>
<circle cx="800.0" cy="217.0" r="121" fill="#ffb347" opacity="0.35" filter="url(#blur)"/>
<circle cx="800.0" cy="217.0" r="105" fill="url(#planet)"/>
<circle cx="763" cy="196" r="13" fill="#000" opacity="0.13"/>
<circle cx="826" cy="228" r="17" fill="#000" opacity="0.13"/>
<circle cx="790" cy="264" r="9" fill="#000" opacity="0.13"/>
<circle cx="847" cy="175" r="7" fill="#000" opacity="0.13"/>
<path d="M 527 217.0 A 273 79 0 0 0 1073 217.0" fill="none" stroke="#cfe3ff" stroke-opacity="0.7" stroke-width="2"/>
<circle cx="1073" cy="217.0" r="5" fill="#cfe3ff"/>
<text x="800.0" y="388" text-anchor="middle" font-size="58" font-weight="800" fill="#ffffff" letter-spacing="-1">Mercury</text>
<text x="800.0" y="438" text-anchor="middle" font-size="21" font-weight="500" fill="#ffd28a" letter-spacing="3">A HARNESS FOR HARNESSES</text>
<line x1="800.0" y1="456" x2="800.0" y2="472" stroke="url(#beam)" stroke-width="2.5"/>
<line x1="120" y1="486" x2="1480" y2="486" stroke="#7cc7ff" stroke-opacity="0.5" stroke-width="1.5"/>
<rect x="496" y="472" width="608" height="28" rx="14" fill="#0b1130" stroke="#7cc7ff" stroke-opacity="0.6"/>
<text x="800.0" y="492" text-anchor="middle" font-size="13" font-weight="600" fill="#cfe3ff" letter-spacing="1.2">DURABLE RUNS · QUEUE · WORKSPACES · HUMAN INPUT</text>
<rect x="120" y="536" width="249" height="84" rx="14" fill="url(#tile)" stroke="#7cc7ff" stroke-opacity="0.8" stroke-width="1.5"/>
<circle cx="244" cy="536" r="5" fill="#7cc7ff"/>
<text x="244" y="586" text-anchor="middle" font-size="25" font-weight="700" fill="#ffffff">PrimeAgent</text>
<rect x="398" y="536" width="249" height="84" rx="14" fill="url(#tile)" stroke="#7cc7ff" stroke-opacity="0.8" stroke-width="1.5"/>
<circle cx="522" cy="536" r="5" fill="#7cc7ff"/>
<text x="522" y="586" text-anchor="middle" font-size="25" font-weight="700" fill="#ffffff">Claude Code</text>
<rect x="676" y="536" width="249" height="84" rx="14" fill="url(#tile)" stroke="#7cc7ff" stroke-opacity="0.8" stroke-width="1.5"/>
<circle cx="800" cy="536" r="5" fill="#7cc7ff"/>
<text x="800" y="586" text-anchor="middle" font-size="25" font-weight="700" fill="#ffffff">Hermes</text>
<rect x="953" y="536" width="249" height="84" rx="14" fill="url(#tile)" stroke="#7cc7ff" stroke-opacity="0.8" stroke-width="1.5"/>
<circle cx="1078" cy="536" r="5" fill="#7cc7ff"/>
<text x="1078" y="586" text-anchor="middle" font-size="25" font-weight="700" fill="#ffffff">Codex</text>
<rect x="1231" y="536" width="249" height="84" rx="14" fill="#0b1130" stroke="#8ea0c8" stroke-opacity="0.8" stroke-width="1.5" stroke-dasharray="8 6"/>
<circle cx="1356" cy="536" r="5" fill="#7cc7ff"/>
<text x="1356" y="586" text-anchor="middle" font-size="25" font-weight="700" fill="#aebad6" font-style="italic">…and yours</text>
<text x="800.0" y="662" text-anchor="middle" font-size="17" fill="#8ea0c8">Mercury orchestrates. Agents write the code.</text>
</svg>
